<?xml version="1.0" encoding="UTF-8"?>
<!DOCTYPE svg PUBLIC "-//W3C//DTD SVG 1.1//EN" "http://www.w3.org/Graphics/SVG/1.1/DTD/svg11.dtd">
<!-- Creator: CorelDRAW 2019 (64-Bit) -->
<svg xmlns="http://www.w3.org/2000/svg" xml:space="preserve" width="400px" height="160px" version="1.1" style="shape-rendering:geometricPrecision; text-rendering:geometricPrecision; image-rendering:optimizeQuality; fill-rule:evenodd; clip-rule:evenodd"
viewBox="0 0 400 160"
 xmlns:xlink="http://www.w3.org/1999/xlink">
 <defs>
  <style type="text/css">
   <![CDATA[
    .fil4 {fill:#273043}
    .fil0 {fill:#303C54}
    .fil2 {fill:#435373}
    .fil3 {fill:#4C5E82}
    .fil1 {fill:#E3E6EF}
    .fil5 {fill:#E3E6EF;fill-rule:nonzero}
   ]]>
  </style>
 </defs>
 <g id="Layer_x0020_1">
  <metadata id="CorelCorpID_0Corel-Layer"/>
  <path class="fil0" d="M384.62 0l-369.24 0c-8.46,0 -15.38,6.99 -15.38,15.54l0 128.92c0,8.55 6.92,15.54 15.38,15.54l369.24 0c8.46,0 15.38,-6.99 15.38,-15.54l0 -128.92c0,-8.55 -6.92,-15.54 -15.38,-15.54z"/>
  <polygon class="fil1" points="356.04,103.65 356.04,82.02 358.84,82.02 358.84,103.65 "/>
  <path class="fil1" d="M374.93 120.37c0.62,-1.9 0.29,-7.45 0.29,-9.95 0,-2.65 0.31,-8.08 -0.02,-10.4 -0.17,-1.19 -1.76,-1.77 -2.78,-2.37 -1.1,-0.65 -2.14,-1.27 -3.26,-1.92l-9.93 -5.8c-1.86,-1.1 -1.73,-1.16 -3.67,-0.01l-13.07 7.63c-3.73,2.12 -2.98,1.04 -2.98,7.66 0,3.48 0,6.95 0,10.42 0,5.61 -0.31,4.29 3.74,6.68l13.21 7.71c1.33,0.68 2.49,-0.44 3.6,-1.07l9.95 -5.78 4.92 -2.8z"/>
  <polygon class="fil2" points="343.65,99.92 357.4,108.08 371.11,99.97 357.39,92.1 "/>
  <path class="fil3" d="M342.18 118.57l13.81 8.05 0.05 -16.19c-2.2,-1.02 -4.72,-2.73 -6.84,-3.95 -1.15,-0.66 -6.22,-3.77 -7.04,-3.91l0.02 16z"/>
  <path class="fil4" d="M358.77 110.44l-0.06 16.1c1.17,-0.41 7.35,-4.19 9.35,-5.34l4.47 -2.53 0.02 -16.16 -13.78 7.93z"/>
  <polygon class="fil1" points="328.02,116.2 328.02,82.02 330.82,82.02 330.82,116.2 "/>
  <polygon class="fil1" points="300.18,103.65 300.18,82.02 302.97,82.02 302.97,103.65 "/>
  <path class="fil1" d="M318.86 120.37c0.62,-1.9 0.29,-7.45 0.29,-9.95 0,-2.65 0.3,-8.08 -0.02,-10.4 -0.17,-1.19 -1.77,-1.77 -2.79,-2.37 -1.1,-0.65 -2.14,-1.27 -3.26,-1.92l-9.93 -5.8c-1.85,-1.1 -1.73,-1.16 -3.66,-0.01l-13.08 7.63c-3.73,2.12 -2.98,1.04 -2.98,7.66 0,3.48 0,6.95 0,10.42 0,5.61 -0.31,4.29 3.74,6.68l13.22 7.71c1.32,0.68 2.48,-0.44 3.59,-1.07l9.96 -5.78 4.92 -2.8z"/>
  <polygon class="fil2" points="287.57,99.92 301.32,108.08 315.04,99.97 301.31,92.1 "/>
  <path class="fil3" d="M286.1 118.57l13.81 8.05 0.05 -16.19c-2.19,-1.02 -4.72,-2.73 -6.84,-3.95 -1.15,-0.66 -6.22,-3.77 -7.04,-3.91l0.02 16z"/>
  <path class="fil4" d="M302.7 110.44l-0.07 16.1c1.17,-0.41 7.35,-4.19 9.36,-5.34l4.46 -2.53 0.03 -16.16 -13.78 7.93z"/>
  <path class="fil1" d="M346.96 136.47c0.62,-1.9 0.29,-7.45 0.29,-9.94 0,-2.66 0.31,-8.09 -0.02,-10.41 -0.17,-1.18 -1.76,-1.77 -2.78,-2.37 -1.1,-0.65 -2.14,-1.27 -3.27,-1.91l-9.92 -5.8c-1.86,-1.1 -1.73,-1.16 -3.67,-0.01l-13.07 7.63c-3.73,2.12 -2.98,1.03 -2.98,7.65 0,3.48 0,6.95 0,10.43 0,5.61 -0.31,4.28 3.74,6.67l13.21 7.72c1.33,0.67 2.49,-0.45 3.6,-1.08l9.95 -5.78 4.92 -2.8z"/>
  <polygon class="fil2" points="315.68,116.03 329.43,124.19 343.14,116.07 329.42,108.21 "/>
  <path class="fil3" d="M314.21 134.67l13.81 8.05 0.05 -16.19c-2.19,-1.02 -4.72,-2.72 -6.84,-3.94 -1.15,-0.66 -6.22,-3.78 -7.04,-3.92l0.02 16z"/>
  <path class="fil4" d="M330.8 126.54l-0.06 16.1c1.17,-0.4 7.35,-4.19 9.35,-5.34l4.47 -2.53 0.02 -16.15 -13.78 7.92z"/>
  <path class="fil5" d="M51.14 47.96l32.17 49.23 0 -49.7c0,-3.23 0.69,-5.64 2.06,-7.25 1.36,-1.62 3.21,-2.43 5.54,-2.43 2.38,0 4.29,0.79 5.67,2.41 1.39,1.61 2.08,4.04 2.08,7.27l0 65.66c0,7.33 -3,10.99 -9,10.99 -1.5,0 -2.85,-0.22 -4.06,-0.66 -1.19,-0.43 -2.33,-1.13 -3.37,-2.07 -1.06,-0.95 -2.02,-2.06 -2.92,-3.34 -0.91,-1.26 -1.81,-2.57 -2.72,-3.89l-31.38 -48.61 0 48.88c0,3.19 -0.73,5.6 -2.19,7.24 -1.49,1.63 -3.37,2.45 -5.66,2.45 -2.37,0 -4.27,-0.82 -5.7,-2.47 -1.44,-1.66 -2.15,-4.07 -2.15,-7.22l0 -64.39c0,-2.75 0.31,-4.89 0.9,-6.44 0.72,-1.71 1.91,-3.11 3.56,-4.2 1.66,-1.07 3.45,-1.61 5.35,-1.61 1.52,0 2.81,0.25 3.87,0.73 1.08,0.51 2.02,1.17 2.83,2.01 0.81,0.83 1.63,1.9 2.48,3.24 0.85,1.33 1.73,2.71 2.64,4.17zm120.31 4.31l-37.71 0 0 20.53 34.73 0c2.56,0 4.46,0.59 5.71,1.73 1.28,1.15 1.89,2.69 1.89,4.57 0,1.89 -0.61,3.45 -1.85,4.63 -1.25,1.19 -3.15,1.79 -5.75,1.79l-34.73 0 0 23.8 39 0c2.64,0 4.62,0.62 5.95,1.85 1.34,1.22 2.02,2.88 2.02,4.92 0,1.96 -0.68,3.57 -2.02,4.8 -1.33,1.22 -3.31,1.85 -5.95,1.85l-45.48 0c-3.64,0 -6.26,-0.82 -7.86,-2.45 -1.59,-1.64 -2.4,-4.28 -2.4,-7.92l0 -62.8c0,-2.43 0.37,-4.42 1.08,-5.95 0.71,-1.54 1.82,-2.67 3.34,-3.36 1.53,-0.7 3.47,-1.05 5.84,-1.05l44.19 0c2.68,0 4.66,0.6 5.95,1.78 1.29,1.21 1.94,2.78 1.94,4.71 0,1.98 -0.65,3.58 -1.94,4.78 -1.29,1.19 -3.27,1.79 -5.95,1.79zm71.93 0l-32.98 0 0 21.35 27.57 0c2.54,0 4.46,0.58 5.71,1.73 1.26,1.17 1.89,2.72 1.89,4.65 0,1.94 -0.63,3.48 -1.9,4.63 -1.29,1.14 -3.2,1.71 -5.7,1.71l-27.57 0 0 27.49c0,3.5 -0.79,6.09 -2.35,7.78 -1.56,1.69 -3.56,2.53 -5.98,2.53 -2.49,0 -4.51,-0.86 -6.07,-2.57 -1.55,-1.71 -2.34,-4.3 -2.34,-7.74l0 -64.26c0,-2.43 0.36,-4.42 1.07,-5.95 0.72,-1.54 1.83,-2.67 3.35,-3.36 1.52,-0.7 3.47,-1.05 5.83,-1.05l39.47 0c2.67,0 4.65,0.6 5.94,1.78 1.29,1.21 1.95,2.78 1.95,4.71 0,1.98 -0.66,3.58 -1.95,4.78 -1.29,1.19 -3.27,1.79 -5.94,1.79z"/>
  <path class="fil1" d="M308.6 31.23c6.08,-9.4 16.43,-15.12 27.63,-15.12 16.47,0 30.4,12.31 32.65,28.69 7.25,2.93 12.28,9.87 12.28,17.9 0,11.01 -9.24,19.38 -19.92,19.38 -21.62,0 -43.23,-0.17 -64.85,0l0 0c-11.03,0.09 -19.94,-9.03 -19.94,-20.13 0,-9.84 7.03,-18.17 16.47,-19.83 0.56,-6.37 5.85,-11.36 12.29,-11.36 1.15,0 2.29,0.16 3.39,0.47z"/>
  <path class="fil0" d="M308.78 34.92c-1.13,-0.49 -2.34,-0.74 -3.57,-0.74 -4.94,0 -8.95,4.05 -8.95,9.05 0,0.15 0,0.3 0.01,0.45l0.07 1.49 -1.47 0.13c-8.51,0.78 -15.04,8.01 -15.04,16.65 0,9.21 7.38,16.79 16.53,16.72l0 0c21.63,-0.18 43.25,0 64.88,0 8.83,0 16.54,-6.86 16.54,-15.97 0,-6.96 -4.62,-12.89 -11.08,-15.07l-0.94 -0.32 -0.1 -1c-1.56,-15.2 -14.3,-26.78 -29.43,-26.78 -10.53,0 -20.19,5.62 -25.52,14.75l-0.69 1.19 -1.24 -0.55z"/>
 </g>
</svg>
