<?xml version="1.0" encoding="UTF-8"?>
<!DOCTYPE svg PUBLIC "-//W3C//DTD SVG 1.1//EN" "http://www.w3.org/Graphics/SVG/1.1/DTD/svg11.dtd">
<!-- Creator: CorelDRAW 2019 (64-Bit) -->
<svg xmlns="http://www.w3.org/2000/svg" xml:space="preserve" width="33.8666mm" height="13.5464mm" version="1.1" style="shape-rendering:geometricPrecision; text-rendering:geometricPrecision; image-rendering:optimizeQuality; fill-rule:evenodd; clip-rule:evenodd"
viewBox="0 0 3386.66 1354.64"
 xmlns:xlink="http://www.w3.org/1999/xlink">
 <defs>
  <style type="text/css">
   <![CDATA[
    .fil1 {fill:#2B2A29}
    .fil3 {fill:#AAAAAA}
    .fil0 {fill:#C4C6BA}
    .fil2 {fill:#E1E1E1}
    .fil5 {fill:#F8F8F8}
    .fil4 {fill:#2B2A29;fill-rule:nonzero}
   ]]>
  </style>
 </defs>
 <g id="Layer_x0020_1">
  <metadata id="CorelCorpID_0Corel-Layer"/>
  <path class="fil0" d="M3256.46 -0.01l-3126.26 0c-71.61,0 -130.2,59.21 -130.2,131.57l0 1091.52c0,72.36 58.59,131.58 130.2,131.58l3126.26 0c71.61,0 130.21,-59.22 130.21,-131.58l0 -1091.52c0,-72.36 -58.6,-131.57 -130.21,-131.57z"/>
  <polygon class="fil1" points="3014.47,877.55 3014.47,694.43 3038.15,694.43 3038.15,877.55 "/>
  <path class="fil1" d="M3174.44 1019.11c5.25,-16.08 2.43,-63.06 2.43,-84.2 0,-22.45 2.62,-68.42 -0.17,-88.1 -1.42,-10.01 -14.94,-14.95 -23.55,-20.04 -9.33,-5.5 -18.14,-10.77 -27.64,-16.22l-84.05 -49.12c-15.7,-9.31 -14.64,-9.81 -31.02,-0.08l-110.71 64.61c-31.58,17.93 -25.25,8.75 -25.25,64.82 0,29.42 0,58.84 0,88.26 0,47.48 -2.62,36.27 31.7,56.5l111.86 65.33c11.21,5.72 21.03,-3.75 30.47,-9.11l84.25 -48.94 41.68 -23.71z"/>
  <path class="fil2" d="M2897.08 1003.87l116.97 68.18 0.38 -137.12c-18.55,-8.59 -39.95,-23.06 -57.88,-33.36 -9.76,-5.61 -52.65,-31.99 -59.61,-33.18l0.14 135.48z"/>
  <path class="fil3" d="M3037.6 935.03l-0.55 136.35c9.91,-3.46 62.21,-35.51 79.2,-45.26l37.8 -21.4 0.24 -136.78 -116.69 67.09z"/>
  <polygon class="fil1" points="2777.23,983.8 2777.23,694.43 2800.91,694.43 2800.91,983.8 "/>
  <polygon class="fil1" points="2541.5,877.55 2541.5,694.43 2565.18,694.43 2565.18,877.55 "/>
  <path class="fil1" d="M2699.66 1019.11c5.26,-16.08 2.43,-63.06 2.43,-84.2 0,-22.45 2.62,-68.42 -0.17,-88.1 -1.42,-10.01 -14.93,-14.95 -23.55,-20.04 -9.33,-5.5 -18.14,-10.77 -27.64,-16.22l-84.05 -49.12c-15.7,-9.31 -14.64,-9.81 -31.02,-0.08l-110.71 64.61c-31.58,17.93 -25.24,8.75 -25.24,64.82 0,29.42 0,58.84 0,88.26 0,47.48 -2.63,36.27 31.69,56.5l111.86 65.33c11.21,5.72 21.04,-3.75 30.47,-9.11l84.25 -48.94 41.68 -23.71z"/>
  <path class="fil2" d="M2422.31 1003.87l116.96 68.18 0.38 -137.12c-18.55,-8.59 -39.94,-23.06 -57.87,-33.36 -9.77,-5.61 -52.66,-31.99 -59.62,-33.18l0.15 135.48z"/>
  <path class="fil3" d="M2562.82 935.03l-0.55 136.35c9.91,-3.46 62.21,-35.51 79.2,-45.26l37.81 -21.4 0.23 -136.78 -116.69 67.09z"/>
  <path class="fil1" d="M2937.62 1155.45c5.26,-16.08 2.44,-63.06 2.44,-84.2 0,-22.45 2.62,-68.42 -0.17,-88.1 -1.42,-10.01 -14.94,-14.95 -23.56,-20.03 -9.33,-5.51 -18.14,-10.78 -27.64,-16.23l-84.04 -49.12c-15.7,-9.31 -14.65,-9.81 -31.02,-0.07l-110.71 64.6c-31.59,17.93 -25.25,8.76 -25.25,64.82 0,29.42 0,58.84 0,88.27 0,47.48 -2.63,36.27 31.69,56.49l111.86 65.34c11.22,5.71 21.04,-3.76 30.48,-9.12l84.25 -48.94 41.67 -23.71z"/>
  <path class="fil2" d="M2660.27 1140.21l116.97 68.18 0.38 -137.12c-18.55,-8.59 -39.95,-23.05 -57.88,-33.36 -9.77,-5.61 -52.65,-31.98 -59.62,-33.17l0.15 135.47z"/>
  <path class="fil3" d="M2800.78 1071.37l-0.54 136.35c9.91,-3.46 62.21,-35.51 79.2,-45.26l37.8 -21.39 0.24 -136.79 -116.7 67.09z"/>
  <path class="fil4" d="M432.96 406.02l272.38 416.83 0 -420.78c0,-27.33 5.87,-47.74 17.43,-61.41 11.57,-13.66 27.21,-20.57 46.92,-20.57 20.2,0 36.33,6.75 48.06,20.41 11.73,13.66 17.59,34.24 17.59,61.57l0 555.94c0,62.06 -25.41,93.01 -76.24,93.01 -12.7,0 -24.11,-1.81 -34.37,-5.6 -10.1,-3.62 -19.71,-9.55 -28.51,-17.45 -8.96,-8.07 -17.11,-17.45 -24.76,-28.31 -7.66,-10.7 -15.32,-21.74 -22.97,-32.93l-265.71 -411.56 0 413.86c0,27 -6.19,47.42 -18.57,61.25 -12.55,13.82 -28.51,20.74 -47.9,20.74 -20.03,0 -36.16,-6.92 -48.22,-20.91 -12.22,-13.99 -18.24,-34.4 -18.24,-61.08l0 -545.23c0,-23.21 2.6,-41.32 7.65,-54.49 6.03,-14.49 16.13,-26.34 30.14,-35.56 14.01,-9.06 29.16,-13.66 45.29,-13.66 12.87,0 23.78,2.13 32.74,6.25 9.13,4.28 17.11,9.88 23.95,16.96 6.84,7.08 13.85,16.13 21.02,27.49 7.17,11.19 14.66,22.88 22.32,35.23zm1018.67 36.55l-319.3 0 0 173.84 294.05 0c21.66,0 37.79,4.94 48.38,14.65 10.76,9.71 15.97,22.72 15.97,38.69 0,15.97 -5.21,29.14 -15.64,39.18 -10.59,10.04 -26.72,15.14 -48.71,15.14l-294.05 0 0 201.51 330.21 0c22.33,0 39.1,5.26 50.34,15.63 11.41,10.37 17.11,24.37 17.11,41.65 0,16.63 -5.7,30.29 -17.11,40.67 -11.24,10.37 -28.01,15.64 -50.34,15.64l-385.11 0c-30.79,0 -52.95,-6.92 -66.47,-20.75 -13.52,-13.82 -20.36,-36.21 -20.36,-67l0 -531.74c0,-20.57 3.09,-37.37 9.12,-50.37 6.03,-13.01 15.47,-22.56 28.34,-28.48 12.88,-5.93 29.33,-8.89 49.37,-8.89l374.2 0c22.65,0 39.42,5.1 50.34,15.14 10.91,10.21 16.45,23.54 16.45,39.84 0,16.79 -5.54,30.29 -16.45,40.5 -10.92,10.04 -27.69,15.15 -50.34,15.15zm608.96 0l-279.23 0 0 180.75 233.45 0c21.51,0 37.79,4.94 48.38,14.66 10.59,9.87 15.97,23.04 15.97,39.34 0,16.46 -5.38,29.47 -16.13,39.18 -10.91,9.71 -27.04,14.49 -48.22,14.49l-233.45 0 0 232.78c0,29.63 -6.68,51.53 -19.87,65.85 -13.2,14.32 -30.14,21.4 -50.67,21.4 -21.01,0 -38.12,-7.24 -51.32,-21.73 -13.19,-14.49 -19.87,-36.38 -19.87,-65.52l0 -544.09c0,-20.57 3.09,-37.37 9.12,-50.37 6.03,-13.01 15.48,-22.56 28.35,-28.48 12.87,-5.93 29.32,-8.89 49.36,-8.89l334.13 0c22.64,0 39.42,5.1 50.34,15.14 10.91,10.21 16.45,23.54 16.45,39.84 0,16.79 -5.54,30.29 -16.45,40.5 -10.92,10.04 -27.7,15.15 -50.34,15.15z"/>
  <path class="fil1" d="M2612.84 264.45c51.46,-79.66 139.09,-128.01 233.87,-128.01 139.48,0 257.39,104.16 276.49,242.83 61.37,24.81 103.99,83.59 103.99,151.6 0,93.2 -78.25,164.11 -168.7,164.11 -183.01,0 -366.03,-1.45 -549.05,0l-0.05 0c-93.37,0.75 -168.82,-76.45 -168.82,-170.47 0,-83.31 59.55,-153.84 139.49,-167.92 4.7,-53.9 49.5,-96.19 104.07,-96.19 9.74,0 19.4,1.36 28.71,4.05z"/>
  <g id="_3053147281200">
   <polygon class="fil5" points="2909.54,846.03 3025.99,915.11 3142.1,846.39 3025.88,779.8 "/>
   <polygon class="fil5" points="2434.76,846.03 2551.21,915.11 2667.32,846.39 2551.1,779.8 "/>
   <polygon class="fil5" points="2672.73,982.37 2789.17,1051.45 2905.28,982.73 2789.07,916.14 "/>
   <path class="fil5" d="M2614.29 295.65c-9.53,-4.18 -19.77,-6.3 -30.16,-6.3 -41.89,0 -75.84,34.3 -75.84,76.63 0,1.28 0.04,2.56 0.1,3.84l0.61 12.62 -12.45 1.13c-72.06,6.55 -127.34,67.8 -127.34,140.94 0,77.96 62.49,142.14 139.96,141.53l0.04 0c183.1,-1.46 366.19,0 549.28,0 74.74,0 140.06,-58.09 140.06,-135.17 0,-58.97 -39.15,-109.18 -93.83,-127.63l-7.96 -2.69 -0.87 -8.43c-13.22,-128.76 -121.02,-226.73 -249.18,-226.73 -89.08,0 -170.93,47.54 -216.01,124.87l-5.85 10.03 -10.56 -4.64z"/>
  </g>
 </g>
</svg>
