<?xml version="1.0" encoding="UTF-8"?>
<!DOCTYPE svg PUBLIC "-//W3C//DTD SVG 1.1//EN" "http://www.w3.org/Graphics/SVG/1.1/DTD/svg11.dtd">
<!-- Creator: CorelDRAW 2019 (64-Bit) -->
<svg xmlns="http://www.w3.org/2000/svg" xml:space="preserve" width="400px" height="400px" version="1.1" style="shape-rendering:geometricPrecision; text-rendering:geometricPrecision; image-rendering:optimizeQuality; fill-rule:evenodd; clip-rule:evenodd"
viewBox="0 0 400 400"
 xmlns:xlink="http://www.w3.org/1999/xlink">
 <defs>
  <style type="text/css">
   <![CDATA[
    .fil5 {fill:#273043}
    .fil2 {fill:#303C54}
    .fil0 {fill:#303C54}
    .fil3 {fill:#435373}
    .fil4 {fill:#4C5E82}
    .fil1 {fill:#E3E6EF}
    .fil6 {fill:#E3E6EF;fill-rule:nonzero}
   ]]>
  </style>
 </defs>
 <g id="Layer_x0020_1">
  <metadata id="CorelCorpID_0Corel-Layer"/>
  <path class="fil0" d="M240.09 382.37c1.78,-0.45 10.01,-5.26 11.15,-6.29 10.54,-5.56 20.52,-12.02 30.91,-17.85l61.82 -35.64c11.56,-6.72 21.79,-10.93 28.23,-20.84 8,-12.33 5.96,-26.07 5.96,-42.34l-0.04 -97.46c0,-15.2 0.95,-34.07 -0.28,-48.7 -3.08,-19.58 -15.12,-25.31 -30.53,-33.96l-41.31 -23.85c-13.87,-7.57 -27.96,-15.86 -41.33,-23.84 -13.65,-8.14 -27.68,-15.49 -41.36,-23.84 -7.06,-4.31 -13.85,-7.99 -24.35,-7.75 -10.97,0.25 -16.41,4.65 -23.92,8.83 -14.04,7.8 -27.22,15.67 -41.35,23.85 -26.45,15.3 -57.07,32.22 -82.68,47.64 -6.92,4.17 -15.01,7.98 -19.31,12.99 -13.36,15.56 -9.71,32.02 -9.71,54.79l-0.01 130.33c-0.05,31.56 20.39,35.33 46.61,51.35 13.08,7.98 27.74,15.84 41.32,23.84l61.82 35.65c7.01,4.09 13.81,9.17 23.16,10.23 8.51,1.74 19.61,-1.37 25.35,-5.6 2.25,-1.04 6.62,-3.21 7.96,-5.03 1.95,-0.18 1.18,-0.11 3.16,-1.28 1.2,-0.72 1.74,-0.98 2.95,-1.69 2.18,-1.28 4.09,-2.25 5.78,-3.54z"/>
  <path class="fil1" d="M145.1 94.8c15.87,-24.57 42.91,-39.49 72.15,-39.49 43.03,0 79.41,32.13 85.3,74.92 18.93,7.65 32.08,25.79 32.08,46.77 0,28.75 -24.14,50.63 -52.04,50.63 -56.47,0 -112.93,-0.45 -169.4,0l-0.01 0c-28.81,0.23 -52.08,-23.59 -52.08,-52.6 0,-25.7 18.37,-47.46 43.03,-51.8 1.45,-16.63 15.27,-29.68 32.11,-29.68 3,0 5.98,0.42 8.86,1.25z"/>
  <path class="fil2" d="M145.54 104.43c-2.94,-1.29 -6.1,-1.95 -9.3,-1.95 -12.93,0 -23.4,10.59 -23.4,23.65 0,0.39 0.01,0.79 0.03,1.18l0.19 3.89 -3.84 0.35c-22.23,2.02 -39.29,20.92 -39.29,43.48 0,24.06 19.28,43.86 43.18,43.67l0.02 0c56.48,-0.45 112.97,0 169.46,0 23.05,0 43.2,-17.92 43.2,-41.7 0,-18.2 -12.08,-33.69 -28.94,-39.38l-2.46 -0.83 -0.27 -2.6c-4.07,-39.72 -37.33,-69.95 -76.87,-69.95 -27.49,0 -52.74,14.67 -66.65,38.53l-1.8 3.09 -3.26 -1.43z"/>
  <polygon class="fil1" points="252.91,266.3 252.91,225.58 258.23,225.58 258.23,266.3 "/>
  <path class="fil1" d="M288.86 297.79c1.18,-3.58 0.55,-14.03 0.55,-18.73 0,-4.99 0.59,-15.21 -0.04,-19.59 -0.32,-2.23 -3.36,-3.33 -5.29,-4.46 -2.1,-1.22 -4.08,-2.39 -6.22,-3.6l-18.88 -10.93c-3.53,-2.07 -3.29,-2.18 -6.97,-0.01l-24.88 14.36c-7.1,3.99 -5.68,1.95 -5.68,14.42 0,6.54 0,13.08 0,19.63 0,10.56 -0.59,8.06 7.13,12.56l25.13 14.53c2.52,1.27 4.73,-0.83 6.85,-2.03l18.94 -10.88 9.36 -5.27z"/>
  <polygon class="fil3" points="229.33,259.29 255.5,274.66 281.59,259.38 255.48,244.57 "/>
  <path class="fil4" d="M226.53 294.4l26.29 15.16 0.08 -30.49c-4.17,-1.91 -8.97,-5.13 -13,-7.42 -2.2,-1.25 -11.84,-7.12 -13.4,-7.38l0.03 30.13z"/>
  <path class="fil5" d="M258.11 279.09l-0.12 30.32c2.22,-0.77 13.98,-7.9 17.8,-10.06l8.49 -4.76 0.05 -30.42 -26.22 14.92z"/>
  <polygon class="fil1" points="199.6,289.93 199.6,225.58 204.92,225.58 204.92,289.93 "/>
  <polygon class="fil1" points="146.62,266.3 146.62,225.58 151.94,225.58 151.94,266.3 "/>
  <path class="fil1" d="M182.17 297.79c1.18,-3.58 0.54,-14.03 0.54,-18.73 0,-4.99 0.59,-15.21 -0.04,-19.59 -0.31,-2.23 -3.35,-3.33 -5.29,-4.46 -2.1,-1.22 -4.08,-2.39 -6.21,-3.6l-18.89 -10.93c-3.53,-2.07 -3.29,-2.18 -6.97,-0.01l-24.88 14.36c-7.1,3.99 -5.67,1.95 -5.67,14.42 0,6.54 0,13.08 0,19.63 0,10.56 -0.59,8.06 7.12,12.56l25.14 14.53c2.52,1.27 4.73,-0.83 6.85,-2.03l18.93 -10.88 9.37 -5.27z"/>
  <polygon class="fil3" points="122.64,259.29 148.81,274.66 174.9,259.38 148.78,244.57 "/>
  <path class="fil4" d="M119.84 294.4l26.28 15.16 0.09 -30.49c-4.17,-1.91 -8.98,-5.13 -13.01,-7.42 -2.19,-1.25 -11.83,-7.12 -13.4,-7.38l0.04 30.13z"/>
  <path class="fil5" d="M151.41 279.09l-0.12 30.32c2.23,-0.77 13.98,-7.9 17.8,-10.06l8.49 -4.76 0.06 -30.42 -26.23 14.92z"/>
  <path class="fil6" d="M139.92 150.43l21.55 32.63 0 -32.94c0,-2.14 0.46,-3.74 1.37,-4.81 0.92,-1.07 2.16,-1.61 3.72,-1.61 1.59,0 2.87,0.53 3.8,1.6 0.93,1.07 1.39,2.68 1.39,4.82l0 43.53c0,4.85 -2.01,7.28 -6.03,7.28 -1.01,0 -1.91,-0.14 -2.72,-0.44 -0.8,-0.28 -1.56,-0.75 -2.26,-1.37 -0.71,-0.63 -1.35,-1.36 -1.96,-2.21 -0.6,-0.84 -1.21,-1.7 -1.81,-2.58l-21.02 -32.22 0 32.4c0,2.11 -0.49,3.71 -1.47,4.79 -1,1.09 -2.26,1.63 -3.79,1.63 -1.59,0 -2.86,-0.54 -3.82,-1.64 -0.96,-1.09 -1.44,-2.69 -1.44,-4.78l0 -42.69c0,-1.81 0.21,-3.23 0.6,-4.26 0.48,-1.14 1.28,-2.07 2.39,-2.79 1.11,-0.71 2.31,-1.07 3.58,-1.07 1.02,0 1.88,0.17 2.59,0.49 0.72,0.34 1.36,0.78 1.9,1.33 0.54,0.55 1.09,1.26 1.66,2.15 0.57,0.88 1.16,1.79 1.77,2.76zm80.59 2.86l-25.26 0 0 13.61 23.26 0c1.71,0 2.99,0.39 3.83,1.15 0.85,0.76 1.26,1.78 1.26,3.03 0,1.25 -0.41,2.28 -1.24,3.07 -0.83,0.78 -2.11,1.18 -3.85,1.18l-23.26 0 0 15.78 26.12 0c1.77,0 3.09,0.41 3.98,1.22 0.91,0.81 1.36,1.91 1.36,3.26 0,1.3 -0.45,2.37 -1.36,3.19 -0.89,0.81 -2.21,1.22 -3.98,1.22l-30.47 0c-2.43,0 -4.19,-0.54 -5.26,-1.62 -1.07,-1.09 -1.61,-2.84 -1.61,-5.25l0 -41.63c0,-1.61 0.25,-2.93 0.72,-3.94 0.48,-1.02 1.23,-1.77 2.25,-2.23 1.02,-0.47 2.32,-0.7 3.9,-0.7l29.61 0c1.79,0 3.12,0.4 3.98,1.19 0.86,0.8 1.3,1.84 1.3,3.12 0,1.31 -0.44,2.37 -1.3,3.17 -0.86,0.78 -2.19,1.18 -3.98,1.18zm48.17 0l-22.09 0 0 14.15 18.47 0c1.7,0 2.99,0.39 3.83,1.15 0.84,0.77 1.26,1.81 1.26,3.08 0,1.29 -0.42,2.31 -1.27,3.07 -0.86,0.76 -2.14,1.13 -3.82,1.13l-18.47 0 0 18.23c0,2.32 -0.52,4.03 -1.57,5.15 -1.04,1.12 -2.38,1.68 -4.01,1.68 -1.66,0 -3.01,-0.57 -4.06,-1.7 -1.04,-1.14 -1.57,-2.85 -1.57,-5.13l0 -42.6c0,-1.61 0.25,-2.93 0.72,-3.94 0.48,-1.02 1.23,-1.77 2.24,-2.23 1.02,-0.47 2.33,-0.7 3.91,-0.7l26.43 0c1.8,0 3.12,0.4 3.99,1.19 0.86,0.8 1.3,1.84 1.3,3.12 0,1.31 -0.44,2.37 -1.3,3.17 -0.87,0.78 -2.19,1.18 -3.99,1.18z"/>
  <path class="fil1" d="M235.64 328.11c1.18,-3.58 0.55,-14.03 0.55,-18.73 0,-4.99 0.59,-15.21 -0.04,-19.59 -0.32,-2.23 -3.36,-3.32 -5.29,-4.46 -2.1,-1.22 -4.08,-2.39 -6.21,-3.6l-18.89 -10.93c-3.53,-2.07 -3.29,-2.18 -6.97,-0.01l-24.88 14.36c-7.1,3.99 -5.67,1.95 -5.67,14.42 0,6.54 0,13.08 0,19.63 0,10.56 -0.6,8.06 7.12,12.56l25.14 14.53c2.52,1.27 4.72,-0.83 6.84,-2.03l18.94 -10.88 9.36 -5.27z"/>
  <polygon class="fil3" points="176.11,289.62 202.28,304.98 228.37,289.7 202.26,274.89 "/>
  <path class="fil4" d="M173.31 324.72l26.29 15.16 0.08 -30.49c-4.16,-1.91 -8.97,-5.13 -13,-7.42 -2.2,-1.25 -11.83,-7.11 -13.4,-7.38l0.03 30.13z"/>
  <path class="fil5" d="M204.89 309.41l-0.12 30.32c2.23,-0.77 13.98,-7.9 17.8,-10.06l8.49 -4.76 0.06 -30.42 -26.23 14.92z"/>
 </g>
</svg>
